<svg width="126" height="50" viewBox="0 0 126 50" fill="none" xmlns="http://www.w3.org/2000/svg">
<path d="M6.89256 20.4974C5.65892 20.4974 4.60558 20.3645 3.73255 20.0988C2.87849 19.8141 2.17627 19.4725 1.62587 19.074C1.09446 18.6754 0.695899 18.2673 0.430192 17.8498C0.164485 17.4133 0.0221422 17.0432 0.00316318 16.7395C-0.0158159 16.5308 0.0506108 16.36 0.202443 16.2271C0.354276 16.0753 0.515598 15.9993 0.686409 15.9993H3.93183C3.98877 15.9993 4.03621 16.0088 4.07417 16.0278C4.11213 16.0468 4.16907 16.0848 4.24498 16.1417C4.49171 16.2745 4.73844 16.4454 4.98517 16.6541C5.23189 16.8439 5.51658 17.0147 5.83922 17.1666C6.16187 17.3184 6.55094 17.3943 7.00644 17.3943C7.53785 17.3943 7.98386 17.2899 8.34446 17.0812C8.70506 16.8724 8.88536 16.5592 8.88536 16.1417C8.88536 15.838 8.79996 15.5913 8.62915 15.4015C8.45833 15.1927 8.10722 14.9935 7.57581 14.8037C7.06337 14.6139 6.28523 14.4241 5.24138 14.2343C4.25447 14.0065 3.39093 13.7124 2.65074 13.3518C1.91056 12.9722 1.34119 12.4882 0.942627 11.8999C0.544066 11.2925 0.344786 10.5618 0.344786 9.70779C0.344786 8.94863 0.591514 8.21793 1.08497 7.51571C1.57843 6.81348 2.29963 6.24411 3.24858 5.80759C4.19754 5.35209 5.36475 5.12435 6.75022 5.12435C7.851 5.12435 8.79996 5.2572 9.59708 5.52291C10.4132 5.76963 11.0964 6.09228 11.6468 6.49084C12.2162 6.8894 12.6432 7.29745 12.9279 7.71499C13.2126 8.13253 13.3644 8.51211 13.3834 8.85373C13.4024 9.04352 13.3454 9.21433 13.2126 9.36617C13.0797 9.49902 12.9279 9.56545 12.7571 9.56545H9.79636C9.72044 9.56545 9.64453 9.55596 9.56861 9.53698C9.49269 9.49902 9.42627 9.46106 9.36933 9.4231C9.14158 9.30923 8.91383 9.1574 8.68608 8.96761C8.45833 8.77782 8.19263 8.607 7.88896 8.45517C7.5853 8.30334 7.20572 8.22742 6.75022 8.22742C6.23778 8.22742 5.83922 8.3413 5.55454 8.56905C5.26985 8.79679 5.12751 9.09097 5.12751 9.45157C5.12751 9.6983 5.20343 9.92605 5.35526 10.1348C5.52607 10.3436 5.8582 10.5334 6.35166 10.7042C6.86409 10.875 7.65172 11.0648 8.71455 11.2736C10.0241 11.4823 11.068 11.824 11.8461 12.2984C12.6242 12.7539 13.1746 13.2948 13.4973 13.9211C13.8199 14.5285 13.9812 15.1738 13.9812 15.857C13.9812 16.768 13.706 17.5746 13.1557 18.2768C12.6242 18.9791 11.8271 19.5295 10.7643 19.928C9.70146 20.3076 8.41089 20.4974 6.89256 20.4974Z" fill="#333333"/>
<path d="M23.5391 20.4974C21.9449 20.4974 20.5974 20.2412 19.4966 19.7287C18.4148 19.2163 17.5797 18.4856 16.9913 17.5367C16.422 16.5687 16.0993 15.4205 16.0234 14.092C16.0044 13.7124 15.9949 13.2853 15.9949 12.8109C15.9949 12.3174 16.0044 11.8904 16.0234 11.5298C16.0993 10.1823 16.441 9.03403 17.0483 8.08508C17.6556 7.13613 18.5002 6.40543 19.582 5.893C20.6828 5.38056 22.0018 5.12435 23.5391 5.12435C25.0954 5.12435 26.4145 5.38056 27.4963 5.893C28.597 6.40543 29.4511 7.13613 30.0584 8.08508C30.6658 9.03403 31.0074 10.1823 31.0833 11.5298C31.1023 11.8904 31.1118 12.3174 31.1118 12.8109C31.1118 13.2853 31.1023 13.7124 31.0833 14.092C31.0074 15.4205 30.6752 16.5687 30.0869 17.5367C29.5175 18.4856 28.6824 19.2163 27.5817 19.7287C26.4999 20.2412 25.1523 20.4974 23.5391 20.4974ZM23.5391 17.0242C24.3932 17.0242 25.01 16.768 25.3896 16.2556C25.7881 15.7431 26.0159 14.9745 26.0728 13.9496C26.0918 13.6649 26.1013 13.2853 26.1013 12.8109C26.1013 12.3364 26.0918 11.9568 26.0728 11.6721C26.0159 10.6662 25.7881 9.90707 25.3896 9.39464C25.01 8.86322 24.3932 8.59751 23.5391 8.59751C22.704 8.59751 22.0872 8.86322 21.6887 9.39464C21.2901 9.90707 21.0718 10.6662 21.0339 11.6721C21.0149 11.9568 21.0054 12.3364 21.0054 12.8109C21.0054 13.2853 21.0149 13.6649 21.0339 13.9496C21.0718 14.9745 21.2901 15.7431 21.6887 16.2556C22.0872 16.768 22.704 17.0242 23.5391 17.0242Z" fill="#333333"/>
<path d="M34.6234 20.2127C34.4146 20.2127 34.2438 20.1463 34.111 20.0134C33.9781 19.8806 33.9117 19.7098 33.9117 19.501V6.12075C33.9117 5.91198 33.9781 5.74117 34.111 5.60831C34.2438 5.47546 34.4146 5.40903 34.6234 5.40903H37.8973C38.1061 5.40903 38.2769 5.47546 38.4097 5.60831C38.5426 5.74117 38.609 5.91198 38.609 6.12075V7.20255C39.1025 6.6142 39.7478 6.12075 40.5449 5.72219C41.342 5.32363 42.2815 5.12435 43.3633 5.12435C44.4641 5.12435 45.432 5.37107 46.2671 5.86453C47.1211 6.35799 47.7854 7.08868 48.2599 8.05661C48.7533 9.00556 49 10.1728 49 11.5582V19.501C49 19.7098 48.9241 19.8806 48.7723 20.0134C48.6394 20.1463 48.4781 20.2127 48.2883 20.2127H44.7013C44.5115 20.2127 44.3407 20.1463 44.1889 20.0134C44.056 19.8806 43.9896 19.7098 43.9896 19.501V11.7291C43.9896 10.837 43.7713 10.1538 43.3348 9.67932C42.9173 9.18586 42.291 8.93914 41.4559 8.93914C40.6777 8.93914 40.0514 9.18586 39.5769 9.67932C39.1214 10.1538 38.8937 10.837 38.8937 11.7291V19.501C38.8937 19.7098 38.8178 19.8806 38.666 20.0134C38.5331 20.1463 38.3718 20.2127 38.182 20.2127H34.6234Z" fill="#333333"/>
<path d="M56.6183 20.4974C55.5934 20.4974 54.6729 20.3076 53.8568 19.928C53.0597 19.5295 52.4239 18.998 51.9494 18.3338C51.475 17.6695 51.2377 16.9198 51.2377 16.0848C51.2377 14.7372 51.7881 13.6744 52.8889 12.8963C53.9897 12.0992 55.4511 11.5582 57.2731 11.2736L60.8316 10.7327V10.3341C60.8316 9.65085 60.6893 9.12893 60.4046 8.76833C60.1199 8.40772 59.598 8.22742 58.8388 8.22742C58.3074 8.22742 57.8709 8.33181 57.5293 8.54058C57.2066 8.74935 56.9504 9.03403 56.7606 9.39464C56.5898 9.64136 56.3526 9.76473 56.0489 9.76473H52.8604C52.6517 9.76473 52.4903 9.70779 52.3765 9.59391C52.2626 9.46106 52.2151 9.30923 52.2341 9.13842C52.2341 8.79679 52.3575 8.40772 52.6042 7.97121C52.8699 7.51571 53.2685 7.0697 53.7999 6.63318C54.3313 6.19666 55.0146 5.83606 55.8496 5.55138C56.6847 5.26669 57.6906 5.12435 58.8673 5.12435C60.1009 5.12435 61.1543 5.26669 62.0273 5.55138C62.9004 5.83606 63.6026 6.23462 64.134 6.74706C64.6844 7.25949 65.0924 7.86682 65.3581 8.56905C65.6239 9.25229 65.7567 10.0115 65.7567 10.8465V19.501C65.7567 19.7098 65.6808 19.8806 65.529 20.0134C65.3961 20.1463 65.2348 20.2127 65.045 20.2127H61.7426C61.5339 20.2127 61.3631 20.1463 61.2302 20.0134C61.0973 19.8806 61.0309 19.7098 61.0309 19.501V18.5046C60.7842 18.8652 60.4521 19.1973 60.0345 19.501C59.617 19.8047 59.1235 20.0419 58.5541 20.2127C58.0038 20.4025 57.3585 20.4974 56.6183 20.4974ZM57.9563 17.252C58.5067 17.252 59.0002 17.1381 59.4367 16.9103C59.8922 16.6636 60.2433 16.2935 60.49 15.8001C60.7557 15.2876 60.8886 14.6518 60.8886 13.8927V13.4941L58.4687 13.9211C57.5767 14.073 56.922 14.3102 56.5044 14.6329C56.1059 14.9365 55.9066 15.2971 55.9066 15.7147C55.9066 16.0373 56.0015 16.3125 56.1913 16.5403C56.381 16.768 56.6278 16.9483 56.9314 17.0812C57.2351 17.195 57.5767 17.252 57.9563 17.252Z" fill="#333333"/>
<path d="M76.4306 20.2127C75.216 20.2127 74.1626 20.0229 73.2706 19.6433C72.3976 19.2448 71.7238 18.6374 71.2494 17.8213C70.7749 16.9863 70.5376 15.9139 70.5376 14.6044V9.13842V0.711714C70.5376 0.502945 70.6041 0.332134 70.7369 0.199281C70.8888 0.0664271 71.0596 0 71.2494 0H74.5517C74.7605 0 74.9313 0.0664271 75.0642 0.199281C75.197 0.332134 75.2634 0.502945 75.2634 0.711714V9.13842V14.2058C75.2634 14.8511 75.3868 15.3636 75.6335 15.7431C75.8803 16.1227 76.2978 16.3125 76.8861 16.3125H79.0782C79.287 16.3125 79.4578 16.3789 79.5907 16.5118C79.7235 16.6446 79.7899 16.8154 79.7899 17.0242V19.501C79.7899 19.7098 79.7235 19.8806 79.5907 20.0134C79.4578 20.1463 79.287 20.2127 79.0782 20.2127H76.4306Z" fill="#333333"/>
<path d="M82.8588 20.2127C82.65 20.2127 82.4792 20.1463 82.3463 20.0134C82.2135 19.8806 82.147 19.7098 82.147 19.501L82.1186 10.7327C82.1186 10.5239 82.185 10.3531 82.3179 10.2202C82.4507 10.0874 82.6215 10.0209 82.8303 10.0209H86.1896C86.3794 10.0209 86.5407 10.0874 86.6736 10.2202C86.8254 10.3531 86.9013 10.5239 86.9013 10.7327L86.9298 19.501C86.9298 19.7098 86.8539 19.8806 86.702 20.0134C86.5692 20.1463 86.4078 20.2127 86.2181 20.2127H82.8588Z" fill="#198754"/>
<path d="M28.132 49.9409C26.329 49.9409 24.7822 49.6468 23.4917 49.0584C22.2201 48.4701 21.2237 47.6065 20.5025 46.4678C19.8002 45.329 19.4112 43.9151 19.3352 42.2259C19.3163 41.4478 19.3068 40.6127 19.3068 39.7207C19.3068 38.8287 19.3163 37.9746 19.3352 37.1585C19.4112 35.5074 19.8097 34.1124 20.5309 32.9737C21.2521 31.8159 22.258 30.9429 23.5486 30.3545C24.8392 29.7472 26.367 29.4436 28.132 29.4436C29.3847 29.4436 30.5424 29.6049 31.6052 29.9275C32.668 30.2312 33.598 30.6867 34.3951 31.294C35.1922 31.8824 35.8091 32.6036 36.2456 33.4576C36.7011 34.2927 36.9383 35.2417 36.9573 36.3045C36.9763 36.4753 36.9193 36.6176 36.7865 36.7315C36.6726 36.8454 36.5303 36.9023 36.3595 36.9023H32.5162C32.2695 36.9023 32.0797 36.8549 31.9468 36.76C31.814 36.6461 31.7001 36.4468 31.6052 36.1621C31.3395 35.1562 30.903 34.473 30.2956 34.1124C29.7073 33.7328 28.9766 33.543 28.1036 33.543C27.0597 33.543 26.2341 33.8372 25.6268 34.4256C25.0195 34.9949 24.6873 35.9534 24.6304 37.3009C24.5735 38.8572 24.5735 40.4514 24.6304 42.0836C24.6873 43.4311 25.0195 44.3991 25.6268 44.9874C26.2341 45.5568 27.0597 45.8415 28.1036 45.8415C28.9766 45.8415 29.7168 45.6517 30.3241 45.2721C30.9314 44.8925 31.3585 44.2093 31.6052 43.2223C31.6811 42.9377 31.7855 42.7479 31.9184 42.653C32.0702 42.5391 32.2695 42.4822 32.5162 42.4822H36.3595C36.5303 42.4822 36.6726 42.5391 36.7865 42.653C36.9193 42.7669 36.9763 42.9092 36.9573 43.08C36.9383 44.1428 36.7011 45.1013 36.2456 45.9553C35.8091 46.7904 35.1922 47.5116 34.3951 48.1189C33.598 48.7073 32.668 49.1628 31.6052 49.4854C30.5424 49.7891 29.3847 49.9409 28.132 49.9409ZM48.0927 49.9409C46.3467 49.9409 44.8283 49.6562 43.5378 49.0869C42.2472 48.5175 41.2413 47.6634 40.5201 46.5247C39.7989 45.367 39.4003 43.9246 39.3244 42.1975C39.3054 41.3814 39.2959 40.5653 39.2959 39.7492C39.2959 38.9331 39.3054 38.1075 39.3244 37.2724C39.4003 35.5643 39.7989 34.1314 40.5201 32.9737C41.2603 31.797 42.2757 30.9144 43.5662 30.3261C44.8568 29.7377 46.3656 29.4436 48.0927 29.4436C49.8009 29.4436 51.3002 29.7377 52.5908 30.3261C53.9003 30.9144 54.9252 31.797 55.6654 32.9737C56.4056 34.1314 56.8041 35.5643 56.8611 37.2724C56.899 38.1075 56.918 38.9331 56.918 39.7492C56.918 40.5653 56.899 41.3814 56.8611 42.1975C56.7851 43.9246 56.3866 45.367 55.6654 46.5247C54.9442 47.6634 53.9383 48.5175 52.6477 49.0869C51.3571 49.6562 49.8388 49.9409 48.0927 49.9409ZM48.0927 45.8415C49.0986 45.8415 49.9147 45.5378 50.541 44.9305C51.1863 44.3231 51.528 43.3552 51.5659 42.0267C51.6039 41.1916 51.6228 40.404 51.6228 39.6638C51.6228 38.9236 51.6039 38.1549 51.5659 37.3578C51.528 36.4658 51.3571 35.7446 51.0535 35.1942C50.7688 34.6248 50.3702 34.2073 49.8578 33.9416C49.3454 33.6759 48.757 33.543 48.0927 33.543C47.4475 33.543 46.8686 33.6759 46.3562 33.9416C45.8437 34.2073 45.4357 34.6248 45.132 35.1942C44.8283 35.7446 44.6575 36.4658 44.6196 37.3578C44.6006 38.1549 44.5911 38.9236 44.5911 39.6638C44.5911 40.404 44.6006 41.1916 44.6196 42.0267C44.6765 43.3552 45.0181 44.3231 45.6444 44.9305C46.2708 45.5378 47.0869 45.8415 48.0927 45.8415ZM60.9296 49.6562C60.7398 49.6562 60.569 49.5898 60.4172 49.457C60.2843 49.3241 60.2179 49.1533 60.2179 48.9445V30.44C60.2179 30.2312 60.2843 30.0604 60.4172 29.9275C60.569 29.7947 60.7398 29.7282 60.9296 29.7282H64.0042C64.3079 29.7282 64.5356 29.8136 64.6875 29.9845C64.8583 30.1363 64.9627 30.2597 65.0006 30.3545L70.0111 39.3506L75.0216 30.3545C75.0785 30.2597 75.1734 30.1363 75.3063 29.9845C75.4581 29.8136 75.6953 29.7282 76.018 29.7282H79.0641C79.2729 29.7282 79.4437 29.7947 79.5766 29.9275C79.7284 30.0604 79.8043 30.2312 79.8043 30.44V48.9445C79.8043 49.1533 79.7284 49.3241 79.5766 49.457C79.4437 49.5898 79.2729 49.6562 79.0641 49.6562H75.6764C75.4676 49.6562 75.2873 49.5898 75.1355 49.457C75.0026 49.3241 74.9362 49.1533 74.9362 48.9445V38.2688L71.7192 44.2187C71.6433 44.3896 71.5294 44.5414 71.3776 44.6742C71.2258 44.8071 71.017 44.8735 70.7513 44.8735H69.2709C69.0052 44.8735 68.7964 44.8071 68.6446 44.6742C68.4928 44.5414 68.3694 44.3896 68.2745 44.2187L65.0576 38.2688V48.9445C65.0576 49.1533 64.9911 49.3241 64.8583 49.457C64.7254 49.5898 64.5546 49.6562 64.3459 49.6562H60.9296Z" fill="#198754"/>
<circle cx="7.03125" cy="7.03125" r="7.03125" transform="matrix(-1 0 0 1 14.0625 32.8125)" fill="#198754"/>
<rect x="66.7539" y="3.9267" width="20.288" height="3.9267" rx="1.3089" fill="#198754"/>
<path d="M90.6545 23.6937C90.5105 23.6937 90.3927 23.6479 90.3011 23.5563C90.2094 23.4647 90.1636 23.3469 90.1636 23.2029V10.2448C90.1636 10.1008 90.2094 9.98301 90.3011 9.89139C90.3927 9.79977 90.5105 9.75395 90.6545 9.75395H92.8731C93.0039 9.75395 93.1152 9.79977 93.2068 9.89139C93.3115 9.98301 93.3639 10.1008 93.3639 10.2448V10.9712C93.6649 10.5655 94.0641 10.2317 94.5615 9.96992C95.0589 9.69505 95.6741 9.55762 96.4071 9.55762C97.0615 9.55762 97.6374 9.66233 98.1348 9.87176C98.6322 10.0681 99.0576 10.3626 99.411 10.7553C99.7644 11.1479 100.039 11.6257 100.236 12.1885C100.445 12.7513 100.563 13.3992 100.589 14.1322C100.602 14.394 100.609 14.6362 100.609 14.8587C100.609 15.0812 100.602 15.3233 100.589 15.5851C100.563 16.2919 100.452 16.9267 100.255 17.4896C100.059 18.0524 99.784 18.5301 99.4306 18.9228C99.0772 19.3155 98.6453 19.6231 98.1348 19.8456C97.6374 20.055 97.0615 20.1597 96.4071 20.1597C95.7657 20.1597 95.2029 20.0485 94.7186 19.8259C94.2474 19.5903 93.8547 19.2631 93.5406 18.8443V23.2029C93.5406 23.3469 93.4948 23.4647 93.4032 23.5563C93.3115 23.6479 93.1937 23.6937 93.0498 23.6937H90.6545ZM95.3469 17.5288C95.7919 17.5288 96.1388 17.4372 96.3874 17.254C96.6361 17.0707 96.8128 16.822 96.9176 16.5079C97.0354 16.1937 97.1073 15.8469 97.1335 15.4673C97.1597 15.0615 97.1597 14.6558 97.1335 14.25C97.1073 13.8704 97.0354 13.5236 96.9176 13.2095C96.8128 12.8953 96.6361 12.6466 96.3874 12.4634C96.1388 12.2801 95.7919 12.1885 95.3469 12.1885C94.9149 12.1885 94.5681 12.2867 94.3063 12.483C94.0445 12.6663 93.8547 12.9084 93.7369 13.2095C93.6191 13.5105 93.5537 13.8377 93.5406 14.1911C93.5275 14.4398 93.521 14.682 93.521 14.9176C93.521 15.1532 93.5275 15.4019 93.5406 15.6636C93.5537 15.9909 93.6257 16.2985 93.7566 16.5864C93.8874 16.8613 94.0838 17.0903 94.3456 17.2736C94.6073 17.4437 94.9411 17.5288 95.3469 17.5288ZM107.262 20.1597C105.717 20.1597 104.487 19.7409 103.571 18.9032C102.654 18.0655 102.177 16.822 102.137 15.1728C102.137 15.0812 102.137 14.9634 102.137 14.8194C102.137 14.6754 102.137 14.5642 102.137 14.4856C102.177 13.4516 102.406 12.5681 102.824 11.8351C103.256 11.089 103.845 10.5262 104.591 10.1466C105.351 9.75395 106.234 9.55762 107.242 9.55762C108.394 9.55762 109.343 9.78668 110.089 10.2448C110.848 10.7029 111.417 11.3246 111.797 12.11C112.177 12.8953 112.366 13.7919 112.366 14.7998V15.271C112.366 15.4149 112.314 15.5328 112.209 15.6244C112.118 15.716 112.006 15.7618 111.876 15.7618H105.593C105.593 15.7749 105.593 15.7945 105.593 15.8207C105.593 15.8469 105.593 15.8731 105.593 15.8992C105.606 16.2788 105.671 16.6257 105.789 16.9398C105.907 17.254 106.09 17.5026 106.339 17.6859C106.588 17.8691 106.889 17.9608 107.242 17.9608C107.504 17.9608 107.72 17.9215 107.89 17.843C108.073 17.7513 108.224 17.6532 108.341 17.5485C108.459 17.4307 108.551 17.3325 108.616 17.254C108.734 17.1231 108.826 17.0445 108.891 17.0184C108.97 16.9791 109.088 16.9595 109.245 16.9595H111.679C111.81 16.9595 111.915 16.9987 111.993 17.0773C112.085 17.1427 112.124 17.2409 112.111 17.3718C112.098 17.5943 111.987 17.8626 111.777 18.1767C111.568 18.4909 111.26 18.805 110.855 19.1191C110.462 19.4202 109.965 19.6689 109.362 19.8652C108.76 20.0615 108.06 20.1597 107.262 20.1597ZM105.593 13.8181H108.911V13.7788C108.911 13.36 108.845 12.9935 108.715 12.6793C108.597 12.3652 108.407 12.1231 108.145 11.9529C107.896 11.7827 107.595 11.6977 107.242 11.6977C106.889 11.6977 106.588 11.7827 106.339 11.9529C106.103 12.1231 105.92 12.3652 105.789 12.6793C105.658 12.9935 105.593 13.36 105.593 13.7788V13.8181ZM114.698 19.9634C114.554 19.9634 114.436 19.9176 114.344 19.8259C114.253 19.7343 114.207 19.6165 114.207 19.4725V6.51442C114.207 6.37045 114.253 6.25264 114.344 6.16102C114.436 6.0694 114.554 6.02359 114.698 6.02359H116.975C117.106 6.02359 117.217 6.0694 117.309 6.16102C117.414 6.25264 117.466 6.37045 117.466 6.51442V13.0917L120.195 10.0877C120.274 9.9961 120.359 9.91757 120.45 9.85212C120.542 9.78668 120.673 9.75395 120.843 9.75395H123.474C123.592 9.75395 123.69 9.79977 123.769 9.89139C123.86 9.96992 123.906 10.0681 123.906 10.1859C123.906 10.2382 123.893 10.2971 123.867 10.3626C123.841 10.428 123.801 10.4804 123.749 10.5197L120.215 14.3286L124.24 19.2173C124.344 19.322 124.397 19.4267 124.397 19.5314C124.397 19.6492 124.351 19.754 124.259 19.8456C124.181 19.9241 124.076 19.9634 123.945 19.9634H121.255C121.059 19.9634 120.915 19.9307 120.823 19.8652C120.732 19.7867 120.647 19.7081 120.568 19.6296L117.466 15.8992V19.4725C117.466 19.6165 117.414 19.7343 117.309 19.8259C117.217 19.9176 117.106 19.9634 116.975 19.9634H114.698Z" fill="#333333"/>
</svg>
